<svg width="31" height="22" viewBox="0 0 31 22" fill="none" xmlns="http://www.w3.org/2000/svg">
<path fill-rule="evenodd" clip-rule="evenodd" d="M0.4216 2.145C9.23872e-08 2.98571 0 4.08571 0 6.28571V15.7143C0 17.9143 9.23872e-08 19.0143 0.4216 19.855C0.793437 20.594 1.38648 21.1947 2.11575 21.571C2.945 22 4.03 22 6.2 22H24.8C26.97 22 28.055 22 28.8842 21.571C29.6129 21.1944 30.2054 20.5938 30.5768 19.855C31 19.0143 31 17.9143 31 15.7143V6.28571C31 4.08571 31 2.98571 30.5768 2.145C30.2057 1.40565 29.6132 0.804406 28.8842 0.427428C28.055 -2.80993e-07 26.97 0 24.8 0H6.2C4.03 0 2.945 -2.80993e-07 2.11575 0.427428C1.38625 0.804139 0.793174 1.40541 0.4216 2.145ZM4.10285 3.14286H26.8972C27.0636 3.14265 27.2256 3.19675 27.3593 3.29716C27.4931 3.39757 27.5914 3.53895 27.6397 3.70039C27.688 3.86183 27.6838 4.03475 27.6277 4.19357C27.5716 4.3524 27.4665 4.48869 27.3281 4.58229L16.3618 12.0183C16.1068 12.1912 15.8068 12.2836 15.5 12.2836C15.1932 12.2836 14.8932 12.1912 14.6382 12.0183L3.67195 4.58229C3.5335 4.48869 3.42844 4.3524 3.37231 4.19357C3.31618 4.03475 3.31197 3.86183 3.3603 3.70039C3.40863 3.53895 3.50693 3.39757 3.64066 3.29716C3.77438 3.19675 3.93644 3.14265 4.10285 3.14286Z" fill="black" fill-opacity="0.8"/>
</svg>
