<svg width="31" height="31" viewBox="0 0 31 31" fill="none" xmlns="http://www.w3.org/2000/svg">
<path d="M28.5193 0.00278014H2.65431C2.32094 -0.0128347 1.98773 0.0374393 1.67381 0.150753C1.35988 0.264067 1.07139 0.438174 0.824833 0.663097C0.578292 0.888039 0.378521 1.1594 0.23699 1.46162C0.0954588 1.76386 0.0149184 2.09104 0 2.42443V28.3459C0.0195296 29.0435 0.305459 29.7074 0.799064 30.2009C1.29267 30.6945 1.95652 30.9804 2.65431 31H28.5193C29.1976 30.9698 29.8372 30.6749 30.3008 30.1788C30.7645 29.6826 31.0152 29.0247 30.9993 28.3459V2.42443C31.0049 2.09993 30.9441 1.77774 30.8207 1.47757C30.6972 1.17742 30.5138 0.905631 30.2815 0.678867C30.0494 0.452123 29.7733 0.275207 29.4702 0.158948C29.1672 0.0426895 28.8437 -0.0104518 28.5193 0.00278014ZM9.68728 25.8467H5.17301V12.0336H9.68728V25.8467ZM7.5367 9.94125C7.22169 9.95223 6.9078 9.89795 6.61478 9.78182C6.32174 9.6657 6.05588 9.49024 5.83393 9.26646C5.61196 9.04268 5.43865 8.77542 5.32492 8.48147C5.21117 8.18752 5.15946 7.87323 5.17301 7.55834C5.15908 7.24004 5.21183 6.92235 5.32791 6.62565C5.44398 6.32893 5.62079 6.05976 5.84699 5.8354C6.07321 5.61102 6.34381 5.43641 6.64146 5.32276C6.93913 5.2091 7.25726 5.15893 7.57545 5.17543C7.89046 5.16447 8.20435 5.21873 8.49737 5.33485C8.79041 5.45098 9.05627 5.62644 9.27822 5.85022C9.5002 6.074 9.6735 6.34125 9.78723 6.6352C9.90098 6.92915 9.95269 7.24345 9.93915 7.55834C9.95308 7.87664 9.90032 8.19432 9.78425 8.49102C9.66817 8.78774 9.49136 9.05692 9.26516 9.28128C9.03895 9.50566 8.76834 9.68027 8.47069 9.79391C8.17302 9.90757 7.85489 9.95775 7.5367 9.94125ZM25.8457 25.8467H21.312V18.2912C21.312 16.4895 20.6726 15.2496 19.0646 15.2496C18.5651 15.2538 18.079 15.4125 17.6733 15.7039C17.2674 15.9952 16.9616 16.405 16.7977 16.8769C16.6718 17.2307 16.6191 17.6063 16.6427 17.9812V25.8467H12.1866V12.0336H16.6427V13.9709C17.039 13.2431 17.6285 12.639 18.3465 12.2252C19.0646 11.8116 19.8829 11.6045 20.7114 11.6267C23.637 11.6267 25.8457 13.5641 25.8457 17.6906V25.8467Z" fill="black" fill-opacity="0.8"/>
</svg>
