<svg width="71" height="70" viewBox="0 0 71 70" fill="none" xmlns="http://www.w3.org/2000/svg">
<path d="M66.4572 13.1099C68.7321 15.0099 70.0469 17.8211 70.0469 20.785V59.9971C70.0469 65.5199 65.5697 69.9971 60.0469 69.9971H10.0469C4.52403 69.9971 0.046875 65.52 0.046875 59.9971V10C0.046875 4.47716 4.52403 0 10.0469 0H47.1341C49.4773 0 51.7461 0.822849 53.5445 2.32494L59.7437 7.50271L66.4572 13.1099Z" fill="#FFFEFE"/>
<path d="M38.9664 5.25H5.39453V17.7959H38.9664V5.25Z" fill="#B43331"/>
<path d="M17.4348 9.36111C17.2867 9.06226 17.0893 8.7943 16.8179 8.56763C16.5463 8.34096 16.2132 8.15544 15.8307 8.03171C15.4359 7.89773 14.9915 7.83594 14.4981 7.83594H10.8086V15.792H12.6718V12.7929H14.4981C14.9916 12.7929 15.4359 12.7311 15.8307 12.5971C16.2132 12.4734 16.5462 12.288 16.8179 12.0612C17.0893 11.8345 17.2869 11.5768 17.4348 11.2677C17.5704 10.9689 17.6445 10.6494 17.6445 10.3196C17.6444 9.97947 17.5704 9.65997 17.4348 9.36111ZM15.4234 11.1027C15.1766 11.2985 14.8312 11.4016 14.4115 11.4016H12.6718V9.21675H14.4115C14.8312 9.21675 15.1766 9.31983 15.4234 9.52585C15.6578 9.72163 15.7811 9.98959 15.7811 10.3193C15.7813 10.639 15.6578 10.9069 15.4234 11.1027Z" fill="#FFFEFE"/>
<path d="M26.3428 10.9173C26.3305 10.6391 26.3182 10.3918 26.2811 10.165C26.2442 9.93818 26.1824 9.73216 26.0959 9.53638C26.0097 9.35086 25.8985 9.16534 25.7504 9.00046C25.4173 8.59853 25.0102 8.29967 24.5535 8.11415C24.0847 7.92863 23.5295 7.83594 22.8754 7.83594H19.4453V15.792H22.8756C23.5296 15.792 24.0849 15.6993 24.5537 15.5138C25.0104 15.3283 25.4175 15.0294 25.7506 14.6275C25.8987 14.4626 26.0098 14.2771 26.0961 14.0915C26.1825 13.8958 26.2442 13.6896 26.2812 13.4629C26.3184 13.2363 26.3305 12.9888 26.3429 12.7106C26.3552 12.4426 26.3552 12.1438 26.3552 11.814C26.3551 11.4843 26.3551 11.1853 26.3428 10.9173ZM24.4795 12.6179C24.4795 12.855 24.455 13.0405 24.4301 13.2054C24.4054 13.36 24.3685 13.5042 24.3191 13.6073C24.2698 13.7206 24.1957 13.8237 24.1094 13.9164C23.8009 14.2462 23.3321 14.4008 22.7151 14.4008H21.2963V9.21688H22.7151C23.3321 9.21688 23.801 9.38176 24.1094 9.71151C24.1959 9.8042 24.2698 9.89703 24.3191 10.0104C24.3685 10.1237 24.4055 10.2577 24.4301 10.4226C24.455 10.5772 24.4795 10.773 24.4795 10.9996C24.4918 11.2264 24.4918 11.5046 24.4918 11.8138C24.492 12.1231 24.492 12.3911 24.4795 12.6179Z" fill="#FFFEFE"/>
<path d="M34.3002 9.21688V7.83594H28.0195V15.792H29.8828V12.5664H33.6463V11.175H29.8828V9.21688H34.3002Z" fill="#FFFEFE"/>
<path d="M17.4348 9.36111C17.2867 9.06226 17.0893 8.7943 16.8179 8.56763C16.5463 8.34096 16.2132 8.15544 15.8307 8.03171C15.4359 7.89773 14.9915 7.83594 14.4981 7.83594H10.8086V15.792H12.6718V12.7929H14.4981C14.9916 12.7929 15.4359 12.7311 15.8307 12.5971C16.2132 12.4734 16.5462 12.288 16.8179 12.0612C17.0893 11.8345 17.2869 11.5768 17.4348 11.2677C17.5704 10.9689 17.6445 10.6494 17.6445 10.3196C17.6444 9.97947 17.5704 9.65997 17.4348 9.36111ZM15.4234 11.1027C15.1766 11.2985 14.8312 11.4016 14.4115 11.4016H12.6718V9.21675H14.4115C14.8312 9.21675 15.1766 9.31983 15.4234 9.52585C15.6578 9.72163 15.7811 9.98959 15.7811 10.3193C15.7813 10.639 15.6578 10.9069 15.4234 11.1027Z" fill="#FFFEFE"/>
<path opacity="0.08" d="M70.0469 16.1131V70.0022H0.046875V57.3673L32.7705 30.0363L34.7077 28.4183L35.7812 27.5216L37.5703 26.0273L39.6927 24.2547L59.7437 7.50781L70.0469 16.1131Z" fill="#040000"/>
<path d="M70.0459 16.1098H50.7578V0L70.0459 16.1098Z" fill="#BBBBBA"/>
<path d="M60.0536 50.6757C59.6463 50.078 59.0911 49.5111 58.4002 48.9959C57.8327 48.563 57.1663 48.1611 56.4135 47.7901C53.3782 46.2958 49.0471 45.5743 43.1612 45.5743H42.569C42.2481 45.327 41.9149 45.0797 41.5695 44.822C39.3361 43.1422 37.5593 41.318 36.1773 39.2878C38.8917 34.2895 40.1875 29.8374 40.027 26.0448C40.0023 25.4058 39.8912 24.8081 39.6938 24.2515C39.3978 23.355 38.9042 22.5613 38.2131 21.9121C38.2008 21.9018 38.2008 21.9018 38.1885 21.8914C37.0903 20.8609 35.5603 20.2734 34.0055 20.2734C32.4383 20.2734 30.9948 20.8403 29.9457 21.8812C28.9094 22.9117 28.354 24.3237 28.3293 25.9829C28.2924 28.5181 28.5391 30.9193 29.0574 33.135C29.1066 33.3103 29.1438 33.4854 29.1931 33.6606C29.7113 35.6703 30.4764 37.5767 31.4636 39.3494C30.3037 41.3178 29.1313 43.0182 28.3172 44.1725C27.7002 45.0485 27.0214 45.9658 26.3181 46.883C23.1469 47.3571 20.4569 47.9342 18.1126 48.6556C14.9413 49.6141 12.3994 50.8507 10.5733 52.3244C9.3885 53.2725 8.58659 54.2826 8.19162 55.3338C7.77208 56.4159 7.79697 57.498 8.26577 58.4667C8.69757 59.3633 9.47493 60.1156 10.5114 60.6309C10.7582 60.7546 11.0174 60.8576 11.2887 60.9504C12.0785 61.2183 12.9423 61.3626 13.8429 61.3626C15.9283 61.3626 18.0752 60.6102 19.8892 59.2602C23.27 56.7352 26.7621 52.6748 28.8226 50.1086C30.513 49.8922 32.3516 49.7067 34.4247 49.5211C36.868 49.315 39.0272 49.1914 40.9892 49.1294C41.5939 49.5829 42.1738 50.0158 42.7292 50.428C45.8141 52.7261 48.1584 54.3854 50.2808 55.5499C50.2808 55.5602 50.293 55.5602 50.3053 55.5602C51.1445 56.0239 51.9464 56.4052 52.7485 56.7145C53.6491 57.0648 54.5623 57.2504 55.5001 57.2504C56.6847 57.2504 57.7952 56.9515 58.7207 56.4053C59.6584 55.8385 60.3371 55.0244 60.6456 54.1072C61.0038 53.0047 60.7939 51.7784 60.0536 50.6757ZM32.7718 30.0331C32.5989 28.7552 32.5249 27.4257 32.5496 26.0242C32.5742 24.6948 33.1543 23.7981 34.0056 23.7981C34.6471 23.7981 35.3259 24.2824 35.6345 25.2099C35.7209 25.4881 35.7826 25.8076 35.7949 26.1683C35.8195 26.6011 35.8072 27.0546 35.7826 27.5183C35.7086 28.8272 35.4369 30.2184 34.9681 31.7128C34.6843 32.6713 34.3142 33.671 33.8577 34.7118C33.3393 33.2485 32.969 31.6923 32.7718 30.0331ZM12.19 57.158C11.9802 56.7251 12.2146 55.8903 13.4979 54.8598C15.4597 53.2933 18.5321 52.0566 22.814 51.1188C21.9995 52.0462 21.1976 52.8914 20.4201 53.6642C19.2355 54.8597 18.1003 55.8697 17.0761 56.6323C16.2002 57.2918 15.2375 57.7041 14.3245 57.8072C14.1641 57.8278 14.0037 57.8381 13.8433 57.8381C13.0413 57.8382 12.3873 57.5703 12.19 57.158ZM31.9078 46.203L31.9942 46.0896L31.8585 46.1103C31.8831 46.0587 31.9203 46.0072 31.9571 45.966C32.4755 45.2343 33.1293 44.2965 33.8326 43.2144L33.8943 43.3277L34.0547 43.0495C34.573 43.6679 35.1406 44.276 35.7329 44.8633C36.0169 45.1415 36.313 45.4095 36.6089 45.6774L36.4117 45.6877L36.5844 45.8217C36.0786 45.8526 35.5481 45.8938 35.0174 45.935C34.6841 45.9659 34.3386 45.9865 33.9932 46.0174C33.2776 46.0792 32.5742 46.1412 31.9078 46.203ZM52.6749 52.6337C51.2066 51.8505 49.5653 50.7477 47.5416 49.274C50.4166 49.5213 52.6749 50.0469 54.2788 50.8302C54.9822 51.1703 55.5127 51.5207 55.8705 51.8607C56.4629 52.3862 56.6728 52.8604 56.5615 53.1799C56.4629 53.4994 56.0309 53.7158 55.5003 53.7158C55.1917 53.7158 54.8711 53.654 54.538 53.52C53.9703 53.2933 53.3781 53.015 52.7487 52.675C52.724 52.675 52.6994 52.6543 52.6749 52.6337Z" fill="#B43331"/>
</svg>
