<svg width="22" height="22" viewBox="0 0 22 22" fill="none" xmlns="http://www.w3.org/2000/svg">
<path d="M15.3464 14.1139L14.7897 14.6999C14.7897 14.6999 13.4666 16.093 9.85489 12.2905C6.24325 8.48809 7.5664 7.09509 7.5664 7.09509L7.91696 6.72603C8.78052 5.81685 8.86193 4.35719 8.10851 3.29157L6.56731 1.11175C5.63478 -0.207167 3.83283 -0.381394 2.76399 0.743894L0.845591 2.76362C0.315612 3.32159 -0.039541 4.04489 0.00353002 4.84726C0.113713 6.90001 0.990864 11.3166 5.88543 16.4697C11.0759 21.9343 15.9461 22.1514 17.9377 21.9549C18.5676 21.8927 19.1154 21.553 19.5569 21.0882L21.2932 19.2603C22.4652 18.0264 22.1347 15.9111 20.6351 15.048L18.3001 13.7039C17.3154 13.1372 16.116 13.3036 15.3464 14.1139Z" fill="black" fill-opacity="0.8"/>
</svg>
