<svg width="35" height="66" viewBox="0 0 35 66" fill="none" xmlns="http://www.w3.org/2000/svg">
<g filter="url(#filter0_d_549_1199)">
<path d="M30.4637 4.31771C30.4637 1.943 28.5208 0 26.1461 0H8.31771C5.943 0 4 1.943 4 4.31771V53.6823C4 56.057 5.943 58 8.31771 58H26.1461C28.5208 58 30.4638 56.057 30.4638 53.6823L30.4637 4.31771Z" fill="#333E48"/>
<g opacity="0.2">
<path d="M11.7708 54.5448C9.39612 54.5448 7.45312 52.6018 7.45312 50.2271V7.77083C7.45312 5.39612 9.39612 3.45312 11.7708 3.45312H22.6909C25.0656 3.45312 27.0086 5.39612 27.0086 7.77083V50.2271C27.0086 52.6018 25.0656 54.5448 22.6909 54.5448H11.7708Z" fill="black"/>
</g>
<path d="M17.2326 51.348C20.6834 51.348 23.4809 48.5506 23.4809 45.0998C23.4809 41.649 20.6834 38.8516 17.2326 38.8516C13.7818 38.8516 10.9844 41.649 10.9844 45.0998C10.9844 48.5506 13.7818 51.348 17.2326 51.348Z" fill="#00AD68"/>
<path opacity="0.2" d="M17.2304 38.8516C14.3197 38.8516 11.8741 40.8417 11.1797 43.5353H23.2809C22.5866 40.8416 20.1409 38.8516 17.2304 38.8516Z" fill="black"/>
<path d="M23.0658 38.5156C23.9586 38.5156 24.6823 39.2394 24.6823 40.1321C24.6823 41.0249 23.9586 41.7487 23.0658 41.7487H11.3979C10.505 41.7487 9.78125 41.0249 9.78125 40.1321C9.78125 39.2393 10.505 38.5156 11.3979 38.5156H23.0658Z" fill="#D1D3D3"/>
<path opacity="0.4" d="M21.0278 46.9383C21.481 46.9383 21.8485 46.5709 21.8485 46.1176C21.8485 45.6643 21.481 45.2969 21.0278 45.2969C20.5745 45.2969 20.207 45.6643 20.207 46.1176C20.207 46.5709 20.5745 46.9383 21.0278 46.9383Z" fill="white"/>
<path opacity="0.3" d="M18.9888 46.1182C19.4421 46.1182 19.8096 45.7507 19.8096 45.2974C19.8096 44.8441 19.4421 44.4766 18.9888 44.4766C18.5355 44.4766 18.168 44.8441 18.168 45.2974C18.168 45.7507 18.5355 46.1182 18.9888 46.1182Z" fill="white"/>
<path opacity="0.4" d="M19.5786 49.0557C20.032 49.0557 20.3995 48.6882 20.3995 48.2349C20.3995 47.7816 20.032 47.4141 19.5786 47.4141C19.1253 47.4141 18.7578 47.7816 18.7578 48.2349C18.7578 48.6882 19.1253 49.0557 19.5786 49.0557Z" fill="white"/>
<path d="M17.2326 35.6059C20.6834 35.6059 23.4809 32.8084 23.4809 29.3576C23.4809 25.9068 20.6834 23.1094 17.2326 23.1094C13.7818 23.1094 10.9844 25.9068 10.9844 29.3576C10.9844 32.8084 13.7818 35.6059 17.2326 35.6059Z" fill="#FFB819"/>
<path opacity="0.2" d="M17.2304 23.1094C14.3197 23.1094 11.8741 25.0995 11.1797 27.7931H23.2809C22.5866 25.0995 20.1409 23.1094 17.2304 23.1094Z" fill="black"/>
<path d="M23.0658 22.7656C23.9586 22.7656 24.6823 23.4894 24.6823 24.3823C24.6823 25.2751 23.9586 25.9988 23.0658 25.9988H11.3979C10.505 25.9988 9.78125 25.275 9.78125 24.3823C9.78125 23.4895 10.505 22.7656 11.3979 22.7656H23.0658Z" fill="#D1D3D3"/>
<path opacity="0.4" d="M21.0278 31.1883C21.481 31.1883 21.8485 30.8209 21.8485 30.3676C21.8485 29.9143 21.481 29.5469 21.0278 29.5469C20.5745 29.5469 20.207 29.9143 20.207 30.3676C20.207 30.8209 20.5745 31.1883 21.0278 31.1883Z" fill="white"/>
<path opacity="0.3" d="M18.9888 30.3682C19.4421 30.3682 19.8096 30.0007 19.8096 29.5474C19.8096 29.0941 19.4421 28.7266 18.9888 28.7266C18.5355 28.7266 18.168 29.0941 18.168 29.5474C18.168 30.0007 18.5355 30.3682 18.9888 30.3682Z" fill="white"/>
<path opacity="0.4" d="M19.5786 33.3057C20.032 33.3057 20.3995 32.9382 20.3995 32.4849C20.3995 32.0316 20.032 31.6641 19.5786 31.6641C19.1253 31.6641 18.7578 32.0316 18.7578 32.4849C18.7578 32.9382 19.1253 33.3057 19.5786 33.3057Z" fill="white"/>
<path d="M17.2326 19.8559C20.6834 19.8559 23.4809 17.0584 23.4809 13.6076C23.4809 10.1568 20.6834 7.35938 17.2326 7.35938C13.7818 7.35938 10.9844 10.1568 10.9844 13.6076C10.9844 17.0584 13.7818 19.8559 17.2326 19.8559Z" fill="#FF5959"/>
<path d="M23.0658 7.02344C23.9586 7.02344 24.6823 7.74719 24.6823 8.63996C24.6823 9.53284 23.9586 10.2566 23.0658 10.2566H11.3979C10.505 10.2566 9.78125 9.53284 9.78125 8.63996C9.78125 7.74719 10.505 7.02344 11.3979 7.02344H23.0658Z" fill="#D1D3D3"/>
<path opacity="0.4" d="M21.0278 15.4461C21.481 15.4461 21.8485 15.0787 21.8485 14.6254C21.8485 14.1721 21.481 13.8047 21.0278 13.8047C20.5745 13.8047 20.207 14.1721 20.207 14.6254C20.207 15.0787 20.5745 15.4461 21.0278 15.4461Z" fill="white"/>
<path opacity="0.3" d="M18.9888 14.626C19.4421 14.626 19.8096 14.2585 19.8096 13.8052C19.8096 13.3519 19.4421 12.9844 18.9888 12.9844C18.5355 12.9844 18.168 13.3519 18.168 13.8052C18.168 14.2585 18.5355 14.626 18.9888 14.626Z" fill="white"/>
<path opacity="0.4" d="M19.5786 17.5635C20.032 17.5635 20.3995 17.196 20.3995 16.7427C20.3995 16.2894 20.032 15.9219 19.5786 15.9219C19.1253 15.9219 18.7578 16.2894 18.7578 16.7427C18.7578 17.196 19.1253 17.5635 19.5786 17.5635Z" fill="white"/>
</g>
<defs>
<filter id="filter0_d_549_1199" x="0" y="0" width="34.4648" height="66" filterUnits="userSpaceOnUse" color-interpolation-filters="sRGB">
<feFlood flood-opacity="0" result="BackgroundImageFix"/>
<feColorMatrix in="SourceAlpha" type="matrix" values="0 0 0 0 0 0 0 0 0 0 0 0 0 0 0 0 0 0 127 0" result="hardAlpha"/>
<feOffset dy="4"/>
<feGaussianBlur stdDeviation="2"/>
<feComposite in2="hardAlpha" operator="out"/>
<feColorMatrix type="matrix" values="0 0 0 0 0 0 0 0 0 0 0 0 0 0 0 0 0 0 0.25 0"/>
<feBlend mode="normal" in2="BackgroundImageFix" result="effect1_dropShadow_549_1199"/>
<feBlend mode="normal" in="SourceGraphic" in2="effect1_dropShadow_549_1199" result="shape"/>
</filter>
</defs>
</svg>
